<svg width="27" height="29" viewBox="0 0 27 29" fill="none" xmlns="http://www.w3.org/2000/svg">
<path d="M3.89394 27.0005C3.89394 27.0005 2 27.0005 2 25.0861C2 23.1717 3.89394 17.4284 13.3636 17.4284C22.8333 17.4284 24.7273 23.1717 24.7273 25.0861C24.7273 27.0005 22.8333 27.0005 22.8333 27.0005H3.89394ZM13.3636 13.487C14.8705 13.487 16.3157 12.8819 17.3813 11.8048C18.4468 10.7278 19.0455 9.26693 19.0455 7.74373C19.0455 6.22053 18.4468 4.75971 17.3813 3.68265C16.3157 2.60558 14.8705 2.00049 13.3636 2.00049C11.8567 2.00049 10.4115 2.60558 9.34598 3.68265C8.28044 4.75971 7.68182 6.22053 7.68182 7.74373C7.68182 9.26693 8.28044 10.7278 9.34598 11.8048C10.4115 12.8819 11.8567 13.487 13.3636 13.487Z" stroke="#4D4D4D" stroke-width="4"/>
</svg>
