<svg  viewBox="0 0 58 53" fill="none" xmlns="http://www.w3.org/2000/svg">
<path d="M11.1944 18.665C8.77865 19.2729 6.668 20.742 5.25902 22.7964C3.85005 24.8507 3.23972 27.3488 3.54272 29.8214C3.84571 32.294 5.04117 34.5708 6.90449 36.2241C8.76781 37.8774 11.1707 38.7934 13.6618 38.8H16.216M28.9872 26.0289V49.017V26.0289ZM28.9872 26.0289L22.6016 31.1373L28.9872 26.0289ZM28.9872 26.0289L35.3728 31.1373L28.9872 26.0289Z" stroke="white" stroke-width="6" stroke-linecap="round" stroke-linejoin="round"/>
<path d="M38.7695 13.6086C37.8965 10.1516 35.7417 7.15595 32.7419 5.22882C29.7421 3.3017 26.1217 2.58732 22.6147 3.23051C19.1077 3.8737 15.9765 5.82633 13.8557 8.69257C11.735 11.5588 10.7835 15.1242 11.1941 18.666C11.1941 18.666 11.5849 20.9188 12.3843 22.1959" stroke="white" stroke-width="6" stroke-linecap="round" stroke-linejoin="round"/>
<path d="M41.7576 38.7991C43.561 38.7979 45.3437 38.4148 46.9884 37.6749C48.633 36.9351 50.1023 35.8553 51.2996 34.5067C52.4968 33.1581 53.3949 31.5712 53.9346 29.8505C54.4744 28.1298 54.6436 26.3142 54.4312 24.5234C54.2187 22.7326 53.6294 21.0071 52.702 19.4604C51.7746 17.9137 50.5302 16.581 49.0506 15.55C47.571 14.5189 45.8898 13.8129 44.1177 13.4784C42.3457 13.1439 40.5228 13.1886 38.7692 13.6093L35.3721 14.5339" stroke="white" stroke-width="6" stroke-linecap="round" stroke-linejoin="round"/>
</svg>
