<svg  viewBox="0 0 30 29" fill="none" xmlns="http://www.w3.org/2000/svg">
<path d="M5.82669 10.0684C4.58248 10.3814 3.49542 11.1381 2.76974 12.1961C2.04407 13.2542 1.72973 14.5408 1.88578 15.8143C2.04184 17.0878 2.65754 18.2604 3.61722 19.1119C4.5769 19.9635 5.81449 20.4352 7.09748 20.4386H8.41301M14.9906 27.0162V15.1765V27.0162ZM14.9906 27.0162L11.7018 24.3852L14.9906 27.0162ZM14.9906 27.0162L18.2794 24.3852L14.9906 27.0162Z" stroke="#4C4C4C" stroke-width="3" stroke-linecap="round" stroke-linejoin="round"/>
<path d="M20.0289 7.46382C19.5792 5.68335 18.4694 4.14047 16.9244 3.14793C15.3794 2.15539 13.5147 1.78746 11.7085 2.11872C9.90228 2.44999 8.28957 3.45566 7.19733 4.93188C6.10508 6.4081 5.61501 8.24441 5.82647 10.0686C5.82647 10.0686 6.02775 11.2288 6.4395 11.8866" stroke="#4C4C4C" stroke-width="3" stroke-linecap="round" stroke-linejoin="round"/>
<path d="M21.5681 20.4375C22.4969 20.4368 23.4151 20.2395 24.2621 19.8584C25.1092 19.4774 25.8659 18.9213 26.4825 18.2267C27.0992 17.5321 27.5617 16.7148 27.8397 15.8286C28.1177 14.9423 28.2049 14.0073 28.0954 13.0849C27.986 12.1626 27.6825 11.2739 27.2048 10.4773C26.7272 9.68071 26.0863 8.99431 25.3242 8.46328C24.5622 7.93226 23.6963 7.56864 22.7836 7.39636C21.871 7.22409 20.9321 7.24706 20.0289 7.46377L18.2793 7.93999" stroke="#4C4C4C" stroke-width="3" stroke-linecap="round" stroke-linejoin="round"/>
</svg>
