<svg width="20" height="21" viewBox="0 0 20 21" fill="none" xmlns="http://www.w3.org/2000/svg">
<path d="M19.1696 11.3132V11.3421C19.1696 12.6919 18.8892 13.9752 18.3848 15.1359L18.4081 15.0755C16.9181 18.5866 13.5305 21 9.58482 21C5.63912 21 2.25152 18.5857 0.785731 15.1386L0.761503 15.0755C0.255077 13.8978 -0.00420799 12.6265 5.16446e-05 11.3421V11.2817C5.16446e-05 8.13476 1.49613 5.34235 3.80731 3.59075L3.8324 3.57324C4.00089 3.44086 4.1943 3.34463 4.4008 3.29045C4.60731 3.23626 4.82257 3.22526 5.03342 3.25811L5.02476 3.25723C5.45827 3.30888 5.82861 3.54435 6.06311 3.88312L6.06657 3.88749C6.19732 4.05478 6.29198 4.24792 6.34444 4.45448C6.3969 4.66103 6.406 4.87641 6.37115 5.08674L6.37201 5.07799C6.34577 5.28791 6.2779 5.49031 6.17248 5.67307C6.06707 5.85582 5.92627 6.01517 5.75853 6.14156L5.7542 6.14419C4.95664 6.7469 4.30911 7.52958 3.86313 8.42997C3.41714 9.33036 3.185 10.3236 3.18517 11.3307C3.18532 12.434 3.46412 13.5189 3.99513 14.4826C4.52613 15.4462 5.29173 16.2567 6.21927 16.8369C7.14681 17.4172 8.20553 17.7481 9.29497 17.7982C10.3844 17.8483 11.4684 17.616 12.4442 17.1233C13.42 16.6305 14.2551 15.8938 14.8704 14.9828C15.4856 14.0719 15.8606 13.017 15.9597 11.9183C16.0588 10.8196 15.8788 9.7135 15.4367 8.70494C14.9946 7.69639 14.3051 6.81884 13.4336 6.15556L13.4172 6.14331C13.2497 6.01756 13.1087 5.85911 13.0028 5.67734C12.8968 5.49557 12.8279 5.29415 12.8002 5.08499L12.7994 5.07712C12.7659 4.8675 12.776 4.65314 12.8291 4.44771C12.8821 4.24228 12.9769 4.05029 13.1074 3.88399L13.1048 3.88749C13.2245 3.71416 13.3792 3.56845 13.5586 3.45996C13.738 3.35148 13.9381 3.28268 14.1457 3.25811L14.1527 3.25723C14.362 3.22475 14.5757 3.23628 14.7804 3.2911C14.9851 3.34592 15.1764 3.44286 15.3424 3.57587L15.339 3.57324C17.677 5.34235 19.1739 8.13652 19.1739 11.2843V11.3141V11.3123L19.1696 11.3132ZM11.183 1.6168V9.72968C11.183 10.1582 11.0147 10.5693 10.7152 10.8723C10.4156 11.1754 10.0093 11.3456 9.58568 11.3456C9.16205 11.3456 8.75577 11.1754 8.45621 10.8723C8.15666 10.5693 7.98837 10.1582 7.98837 9.72968V9.69466V9.69642V1.60279C7.98837 1.16161 8.17008 0.763318 8.46168 0.480575L8.46254 0.4797C8.74722 0.183827 9.14525 0 9.58568 0C10.0261 0 10.4241 0.183827 10.7088 0.4797C11.0013 0.763318 11.183 1.16073 11.183 1.60192V1.6168Z" fill="#D30B0B"/>
</svg>
