<!-- Generator: Adobe Illustrator 24.0.1, SVG Export Plug-In  -->
<svg version="1.1" xmlns="http://www.w3.org/2000/svg" xmlns:xlink="http://www.w3.org/1999/xlink" x="0px" y="0px" width="865.6px"
	 height="211.16px" viewBox="0 0 865.6 211.16" style="enable-background:new 0 0 865.6 211.16;" xml:space="preserve">
<style type="text/css">
	.st0{fill:#004FFF;}
	.st1{fill:#0086FF;}
	.st2{fill:#9972FF;}
	.st3{fill:#9933CC;}
	.st4{fill:#191919;}
</style>
<defs>
</defs>
<g>
	<path class="st0" d="M148.27,172.31c-11.41-11.41-26.57-17.69-42.69-17.69c-16.12,0-31.28,6.28-42.69,17.69
		c14.08-14.08,23.2-31.79,26.48-51.01c5.3-0.91,10.72-1.37,16.21-1.37s10.91,0.46,16.21,1.37
		C125.07,140.52,134.19,158.23,148.27,172.31z"/>
	<path class="st1" d="M172.8,147.78l-24.53,24.53c-14.08-14.08-23.2-31.79-26.48-51.01C141.01,124.58,158.72,133.7,172.8,147.78z"/>
	<path class="st0" d="M155.12,105.09c0,16.12,6.28,31.28,17.68,42.69c-14.08-14.08-31.79-23.2-51.01-26.48
		c-0.91-5.31-1.37-10.72-1.37-16.21c0-5.51,0.47-10.95,1.38-16.28c18.69-3.2,36.6-12.01,51-26.41
		C161.4,73.81,155.12,88.97,155.12,105.09z"/>
	<path class="st1" d="M89.37,121.3c-3.28,19.22-12.4,36.93-26.48,51.01l-24.53-24.53C52.44,133.7,70.15,124.58,89.37,121.3z"/>
	<path class="st0" d="M90.74,105.09c0,5.49-0.46,10.9-1.37,16.21c-19.22,3.28-36.93,12.4-51.01,26.48
		c11.4-11.41,17.68-26.57,17.68-42.69S49.76,73.81,38.36,62.4c14.4,14.4,32.31,23.21,51,26.41C90.27,94.14,90.74,99.58,90.74,105.09
		z"/>
	<path class="st2" d="M172.8,62.4c-14.4,14.4-32.31,23.21-51,26.41c3.3-19.2,12.41-36.88,26.47-50.94L172.8,62.4z"/>
	<path class="st2" d="M89.36,88.81c-18.69-3.2-36.6-12.01-51-26.41l24.53-24.53C76.95,51.93,86.06,69.61,89.36,88.81z"/>
	<path class="st3" d="M148.27,37.87c-14.06,14.06-23.17,31.74-26.47,50.94c-5.36,0.93-10.79,1.39-16.22,1.39
		c-5.43,0-10.86-0.46-16.22-1.39c-3.3-19.2-12.41-36.88-26.47-50.94C86.43,61.41,124.73,61.41,148.27,37.87z"/>
	<circle class="st3" cx="105.58" cy="13.13" r="13.13"/>
	<circle class="st0" cx="13.13" cy="105.58" r="13.13"/>
	<circle class="st0" cx="198.03" cy="105.58" r="13.13"/>
	<circle class="st0" cx="105.58" cy="198.03" r="13.13"/>
</g>
<g>
	<path class="st4" d="M400.52,72.35v40.31c0,8.91-0.72,15.51-2.15,19.8c-1.43,4.3-3.84,8.11-7.23,11.45
		c-3.49,3.49-7.84,6.09-13.05,7.81c-5.21,1.72-11.33,2.58-18.36,2.58c-6.98,0-13.06-0.86-18.24-2.58c-5.18-1.72-9.6-4.32-13.24-7.81
		c-3.39-3.23-5.78-7.02-7.19-11.37c-1.41-4.35-2.11-10.98-2.11-19.88V72.35h26.56v42.11c0,6.62,1.09,11.39,3.28,14.34
		c2.19,2.94,5.73,4.41,10.63,4.41c4.95,0,8.5-1.45,10.66-4.34c2.16-2.89,3.24-7.7,3.24-14.41V72.35H400.52z"/>
	<path class="st4" d="M420.67,151.26V72.35h26.25v18.59c2.71-6.77,6.41-11.85,11.09-15.23c4.69-3.38,10.36-5.08,17.03-5.08
		c1.09,0,2.2,0.04,3.32,0.12c1.12,0.08,2.25,0.2,3.4,0.35l-2.66,25.31c-1.67-0.57-3.31-0.99-4.92-1.25
		c-1.62-0.26-3.18-0.39-4.69-0.39c-6.77,0-11.99,2.07-15.66,6.21s-5.51,10.01-5.51,17.62v32.66H420.67z"/>
	<path class="st4" d="M576.61,72.35v78.91h-25.55v-12.81c-3.65,5.47-7.75,9.48-12.3,12.03c-4.56,2.55-9.91,3.83-16.05,3.83
		c-10.52,0-18.93-3.84-25.23-11.52c-6.3-7.68-9.45-17.98-9.45-30.9c0-12.86,3.29-23.09,9.88-30.66c6.59-7.58,15.46-11.37,26.6-11.37
		c5.94,0,11.05,1.26,15.35,3.79c4.3,2.53,7.98,6.42,11.05,11.68V72.35H576.61z M552.16,111.73c0-6.14-1.64-11.02-4.92-14.61
		s-7.76-5.39-13.44-5.39c-5.68,0-10.14,1.79-13.4,5.35c-3.26,3.57-4.88,8.45-4.88,14.65c0,6.15,1.64,10.99,4.92,14.53
		c3.28,3.54,7.73,5.31,13.36,5.31c5.68,0,10.16-1.77,13.44-5.31C550.52,122.72,552.16,117.88,552.16,111.73z"/>
	<path class="st4" d="M597.63,151.26V72.35h25.47v16.02c3.7-6.41,7.97-11.09,12.81-14.06s10.65-4.45,17.42-4.45
		c5.1,0,9.65,0.82,13.63,2.46s7.23,4,9.73,7.07c2.08,2.66,3.57,5.89,4.45,9.69c0.88,3.8,1.33,9.48,1.33,17.03v45.16h-27.89v-42.27
		c0-6.3-1.03-10.88-3.09-13.75c-2.06-2.86-5.35-4.3-9.88-4.3c-5.78,0-10,2.14-12.66,6.41c-2.66,4.27-3.98,11.2-3.98,20.78v33.13
		H597.63z"/>
	<path class="st4" d="M783.02,72.35v40.31c0,8.91-0.72,15.51-2.15,19.8c-1.43,4.3-3.84,8.11-7.23,11.45
		c-3.49,3.49-7.84,6.09-13.05,7.81c-5.21,1.72-11.33,2.58-18.36,2.58c-6.98,0-13.06-0.86-18.24-2.58c-5.18-1.72-9.6-4.32-13.24-7.81
		c-3.39-3.23-5.78-7.02-7.19-11.37c-1.41-4.35-2.11-10.98-2.11-19.88V72.35h26.56v42.11c0,6.62,1.09,11.39,3.28,14.34
		c2.19,2.94,5.73,4.41,10.63,4.41c4.95,0,8.5-1.45,10.66-4.34c2.16-2.89,3.24-7.7,3.24-14.41V72.35H783.02z"/>
	<path class="st4" d="M795.67,144.7l5.78-21.25c4.06,3.54,8.53,6.26,13.4,8.16c4.87,1.9,9.78,2.85,14.73,2.85
		c3.49,0,6.14-0.56,7.97-1.68c1.82-1.12,2.73-2.75,2.73-4.88c0-3.49-3.67-6.09-11.02-7.81c-2.4-0.57-4.32-1.07-5.78-1.48
		c-8.33-2.29-14.39-5.3-18.16-9.02c-3.78-3.72-5.66-8.55-5.66-14.49c0-7.66,2.88-13.78,8.63-18.36c5.75-4.58,13.55-6.88,23.4-6.88
		c5.05,0,10.2,0.59,15.43,1.76s10.59,2.98,16.05,5.43l-5.78,19.14c-3.7-2.5-7.45-4.4-11.25-5.7c-3.8-1.3-7.61-1.95-11.41-1.95
		c-3.18,0-5.57,0.5-7.19,1.48c-1.62,0.99-2.42,2.42-2.42,4.3c0,2.81,3.64,5.18,10.94,7.11c1.67,0.47,2.92,0.81,3.75,1.02
		c9.63,2.76,16.34,6,20.12,9.73c3.78,3.72,5.66,8.76,5.66,15.12c0,8.07-3.1,14.6-9.3,19.57c-6.2,4.97-14.4,7.46-24.61,7.46
		c-6.93,0-13.36-0.79-19.3-2.38S800.88,147.93,795.67,144.7z"/>
</g>
</svg>
