<svg width="32" height="29" viewBox="0 0 32 29" fill="none" xmlns="http://www.w3.org/2000/svg">
<path d="M18.2433 23.6577C23.3478 23.6577 25.9007 23.6577 27.4858 22.0713C29.0722 20.4862 29.0722 17.9333 29.0722 12.8289C29.0722 7.72441 29.0722 5.17151 27.4858 3.58643C25.9007 2 23.3478 2 18.2433 2H12.8289C7.72441 2 5.17151 2 3.58643 3.58643C2 5.17151 2 7.72441 2 12.8289C2 17.9333 2 20.4862 3.58643 22.0713C4.47034 22.9566 5.65475 23.3478 7.41444 23.5197" stroke="#4D4D4D" stroke-width="4" stroke-linecap="round" stroke-linejoin="round"/>
<path d="M18.2439 23.6579C16.5708 23.6579 14.7272 24.3347 13.0446 25.2077C10.3401 26.6114 8.98788 27.314 8.32191 26.8659C7.65593 26.4192 7.78182 25.0318 8.03494 22.2582L8.09179 21.6274" stroke="#4D4D4D" stroke-width="4" stroke-linecap="round"/>
</svg>
