<svg width="57" height="57" viewBox="0 0 57 57" fill="none" xmlns="http://www.w3.org/2000/svg">
<rect width="57" height="57" rx="9" fill="#1E53CF"/>
<path d="M20 13C18.9391 13 17.9217 13.4214 17.1716 14.1716C16.4214 14.9217 16 15.9391 16 17V41C16 42.0609 16.4214 43.0783 17.1716 43.8284C17.9217 44.5786 18.9391 45 20 45H36C37.0609 45 38.0783 44.5786 38.8284 43.8284C39.5786 43.0783 40 42.0609 40 41V17C40 15.9391 39.5786 14.9217 38.8284 14.1716C38.0783 13.4214 37.0609 13 36 13H20ZM20 15H36C36.5304 15 37.0391 15.2107 37.4142 15.5858C37.7893 15.9609 38 16.4696 38 17V41C38 41.5304 37.7893 42.0391 37.4142 42.4142C37.0391 42.7893 36.5304 43 36 43H20C19.4696 43 18.9609 42.7893 18.5858 42.4142C18.2107 42.0391 18 41.5304 18 41V17C18 16.4696 18.2107 15.9609 18.5858 15.5858C18.9609 15.2107 19.4696 15 20 15Z" fill="white"/>
<path d="M21.206 37.1733C20.8162 37.0174 20.5021 36.7163 20.33 36.3333C19.94 35.5573 20.07 34.7813 20.49 34.1293C20.886 33.5153 21.542 32.9933 22.284 32.5553C23.2239 32.0223 24.2174 31.5899 25.248 31.2653C26.0484 29.8265 26.7578 28.3389 27.372 26.8113C27.0048 25.9769 26.7168 25.1097 26.512 24.2213C26.34 23.4213 26.274 22.6293 26.42 21.9493C26.57 21.2413 26.968 20.6053 27.72 20.3033C28.104 20.1493 28.52 20.0633 28.924 20.1493C29.1272 20.1926 29.3183 20.2805 29.4833 20.4068C29.6483 20.5331 29.7831 20.6945 29.878 20.8793C30.054 21.2073 30.118 21.5913 30.132 21.9553C30.146 22.3293 30.108 22.7453 30.038 23.1833C29.87 24.2033 29.498 25.4513 28.998 26.7713C29.5498 27.9514 30.2057 29.0798 30.958 30.1433C31.8482 30.073 32.7436 30.1066 33.626 30.2433C34.354 30.3733 35.094 30.6333 35.546 31.1733C35.786 31.4613 35.932 31.8133 35.946 32.2093C35.96 32.5933 35.852 32.9733 35.67 33.3353C35.5124 33.6708 35.2679 33.958 34.962 34.1673C34.6596 34.3646 34.3026 34.4612 33.942 34.4433C33.28 34.4153 32.634 34.0513 32.076 33.6093C31.3975 33.0483 30.7861 32.4107 30.254 31.7093C28.9015 31.8627 27.565 32.1344 26.26 32.5213C25.6617 33.5813 24.9788 34.5912 24.218 35.5413C23.638 36.2413 23.002 36.8513 22.366 37.1153C22.0006 37.2806 21.5861 37.3014 21.206 37.1733ZM23.964 33.3713C23.632 33.5233 23.324 33.6833 23.046 33.8473C22.39 34.2353 21.964 34.6133 21.752 34.9413C21.564 35.2313 21.56 35.4413 21.672 35.6633C21.692 35.7073 21.712 35.7353 21.724 35.7513C21.7479 35.7449 21.7712 35.7369 21.794 35.7273C22.068 35.6153 22.504 35.2573 23.064 34.5833C23.3825 34.1934 23.6828 33.789 23.964 33.3713ZM27.244 30.7113C27.9118 30.5553 28.5857 30.4266 29.264 30.3253C28.8997 29.7681 28.5594 29.1956 28.244 28.6093C27.9304 29.3185 27.5969 30.0188 27.244 30.7093V30.7113ZM32.136 31.6113C32.436 31.9353 32.728 32.2113 33.006 32.4313C33.486 32.8113 33.82 32.9373 34.002 32.9433C34.0507 32.9497 34.1002 32.9391 34.142 32.9133C34.2252 32.8476 34.29 32.7615 34.33 32.6633C34.4011 32.5415 34.4416 32.4042 34.448 32.2633C34.4469 32.2163 34.4283 32.1715 34.396 32.1373C34.292 32.0133 33.996 31.8333 33.36 31.7193C32.9554 31.6517 32.5462 31.6163 32.136 31.6133V31.6113ZM28.156 24.5993C28.3243 24.0564 28.4579 23.5033 28.556 22.9433C28.618 22.5673 28.642 22.2573 28.632 22.0133C28.6326 21.8787 28.6109 21.7449 28.568 21.6173C28.468 21.6297 28.3703 21.6567 28.278 21.6973C28.104 21.7673 27.962 21.9093 27.886 22.2633C27.806 22.6473 27.826 23.2013 27.978 23.9073C28.026 24.1293 28.086 24.3613 28.158 24.5993H28.156Z" fill="white"/>
</svg>
