<svg width="31" height="29" viewBox="0 0 31 29" fill="none" xmlns="http://www.w3.org/2000/svg">
<path d="M11.2879 27.0005C9.13695 26.3583 7.18895 25.1701 5.63348 23.5517C6.13395 22.9581 6.44592 22.2287 6.52949 21.4568C6.61306 20.6849 6.46441 19.9056 6.10258 19.2187C5.74075 18.5318 5.18219 17.9684 4.49837 17.6007C3.81455 17.233 3.03657 17.0777 2.26399 17.1547C2.08799 16.2926 1.99954 15.4149 2 14.5349C2 13.176 2.20807 11.8651 2.59561 10.6336H2.65023C3.31331 10.6338 3.96549 10.465 4.54521 10.1431C5.12494 9.82128 5.61306 9.35698 5.96349 8.79407C6.31393 8.23117 6.51511 7.58823 6.54804 6.92597C6.58097 6.26372 6.44457 5.60399 6.15171 5.0091C7.67623 3.58953 9.51994 2.55762 11.5272 2.00049C11.8538 2.64188 12.3515 3.18039 12.9653 3.55645C13.579 3.93252 14.2848 4.13147 15.0046 4.13129C15.7244 4.13147 16.4302 3.93252 17.0439 3.55645C17.6576 3.18039 18.1553 2.64188 18.482 2.00049C20.4892 2.55762 22.3329 3.58953 23.8574 5.0091C23.5625 5.60816 23.4262 6.27291 23.4616 6.93973C23.4971 7.60654 23.7031 8.2531 24.0599 8.8175C24.4168 9.38191 24.9125 9.84528 25.4997 10.1633C26.0869 10.4812 26.7459 10.6432 27.4135 10.6336C27.8095 11.8961 28.0104 13.2118 28.0092 14.5349C28.0092 15.4323 27.9181 16.3088 27.7452 17.1547C26.9726 17.0777 26.1946 17.233 25.5108 17.6007C24.827 17.9684 24.2684 18.5318 23.9066 19.2187C23.5447 19.9056 23.3961 20.6849 23.4797 21.4568C23.5632 22.2287 23.8752 22.9581 24.3757 23.5517C22.8202 25.1701 20.8722 26.3583 18.7213 27.0005C18.4687 26.2133 17.9727 25.5265 17.3047 25.0394C16.6368 24.5522 15.8313 24.2896 15.0046 24.2896C14.1778 24.2896 13.3724 24.5522 12.7044 25.0394C12.0365 25.5265 11.5405 26.2133 11.2879 27.0005Z" stroke="#4D4D4D" stroke-width="4" stroke-linejoin="round"/>
<path d="M15.0047 19.0861C15.6025 19.0861 16.1943 18.9684 16.7465 18.7396C17.2988 18.5109 17.8005 18.1756 18.2232 17.753C18.6459 17.3303 18.9811 16.8286 19.2099 16.2763C19.4386 15.7241 19.5563 15.1322 19.5563 14.5345C19.5563 13.9368 19.4386 13.3449 19.2099 12.7927C18.9811 12.2405 18.6459 11.7387 18.2232 11.316C17.8005 10.8934 17.2988 10.5581 16.7465 10.3294C16.1943 10.1006 15.6025 9.98291 15.0047 9.98291C13.7976 9.98291 12.6398 10.4625 11.7863 11.316C10.9327 12.1696 10.4531 13.3274 10.4531 14.5345C10.4531 15.7417 10.9327 16.8994 11.7863 17.753C12.6398 18.6066 13.7976 19.0861 15.0047 19.0861V19.0861Z" stroke="#4D4D4D" stroke-width="4" stroke-linejoin="round"/>
</svg>
