<svg width="32" height="19" viewBox="0 0 32 19" fill="none" xmlns="http://www.w3.org/2000/svg">
<path d="M15.655 0L15.342 0.0949998L2.842 4.283L0 5.22L1.655 5.75V14.5C1.058 14.847 0.655 15.48 0.655 16.22C0.655 16.7504 0.865714 17.2591 1.24079 17.6342C1.61586 18.0093 2.12457 18.22 2.655 18.22C3.18543 18.22 3.69414 18.0093 4.06921 17.6342C4.44429 17.2591 4.655 16.7504 4.655 16.22C4.655 15.48 4.252 14.847 3.655 14.5V6.44L5.655 7.095V12.22C5.655 13.04 6.155 13.72 6.749 14.19C7.343 14.657 8.081 14.987 8.967 15.283C10.741 15.873 13.079 16.22 15.655 16.22C18.231 16.22 20.569 15.874 22.343 15.282C23.229 14.987 23.967 14.657 24.561 14.189C25.155 13.72 25.655 13.04 25.655 12.22V7.095L28.468 6.157L31.31 5.22L28.467 4.282L15.967 0.0949998L15.655 0ZM15.655 2.095L25.03 5.22L15.655 8.345L6.28 5.22L15.655 2.095ZM7.655 7.783L15.343 10.345L15.655 10.439L15.968 10.344L23.655 7.782V12.22C23.655 12.23 23.659 12.346 23.342 12.595C23.026 12.845 22.459 13.16 21.717 13.408C20.235 13.901 18.05 14.22 15.655 14.22C13.26 14.22 11.075 13.902 9.592 13.407C8.852 13.16 8.284 12.844 7.968 12.595C7.65 12.345 7.655 12.23 7.655 12.22V7.783Z" fill="white"/>
</svg>
