<svg width="179" height="148" viewBox="0 0 179 148" fill="none" xmlns="http://www.w3.org/2000/svg">
<path d="M55.47 72.814C62.422 75.658 67.794 80.24 71.586 86.56C75.694 92.564 77.748 99.832 77.748 108.364C77.748 119.74 74.114 129.062 66.846 136.33C59.578 143.598 50.572 147.232 39.828 147.232C28.452 147.232 19.13 143.598 11.862 136.33C4.594 129.062 0.960001 119.74 0.960001 108.364C0.960001 102.676 1.592 97.146 2.856 91.774C4.436 86.402 7.28 78.344 11.388 67.6L36.51 0.291979H74.43L55.47 72.814ZM155.958 72.814C162.91 75.658 168.282 80.24 172.074 86.56C176.182 92.564 178.236 99.832 178.236 108.364C178.236 119.74 174.602 129.062 167.334 136.33C160.066 143.598 151.06 147.232 140.316 147.232C128.94 147.232 119.618 143.598 112.35 136.33C105.082 129.062 101.448 119.74 101.448 108.364C101.448 102.676 102.08 97.146 103.344 91.774C104.924 86.402 107.768 78.344 111.876 67.6L136.998 0.291979H174.918L155.958 72.814Z" fill="#1E53CF" fill-opacity="0.13"/>
</svg>
