<svg width="282" height="35" viewBox="0 0 282 35" fill="none" xmlns="http://www.w3.org/2000/svg">
<path d="M33.9418 24.6521H28.8117C18.3677 24.6521 9.86731 15.9736 9.86731 5.31072V0.273682H0V5.31072C0 21.5296 12.9257 34.7262 28.8117 34.7262H43.8091V0.273682H33.9418V24.6521V24.6521Z" fill="#1E53CF"/>
<path d="M220.233 24.6521H215.103C204.655 24.6521 196.159 15.9736 196.159 5.31072V0.273682H186.292V5.31072C186.292 21.5296 199.217 34.7262 215.103 34.7262H230.101V0.273682H220.233V24.6521V24.6521Z" fill="#1E53CF"/>
<path d="M106.93 0.273682H84.4614V34.7262H94.3287V28.3852H118.403V34.7262H128.271V22.0616C128.271 10.0468 118.698 0.273682 106.93 0.273682ZM94.3287 10.3478H106.93C112.679 10.3478 117.455 14.687 118.279 20.3259H94.3287V10.3478V10.3478Z" fill="#1E53CF"/>
<path d="M50.9126 34.7262H60.7799V10.3478H77.3578V0.273682H50.9126V34.7262Z" fill="#1E53CF"/>
<path d="M169.517 7.72676C164.421 3.09094 157.714 0.273682 150.376 0.273682H135.378V34.7262H145.246V10.3478H150.376C160.824 10.3478 169.32 19.0263 169.32 29.6891V34.7262H169.517H179.188H179.384V0.273682H169.517V7.72676V7.72676Z" fill="#1E53CF"/>
<path d="M254.175 0.273682C244.816 0.273682 237.204 8.04512 237.204 17.6002H247.071C247.071 13.6011 250.258 10.3478 254.175 10.3478H282V0.273682H254.175Z" fill="#1E53CF"/>
<path d="M264.043 24.6521H236.414V34.7262H264.043C273.402 34.7262 281.013 26.9548 281.013 17.3997H271.146C271.146 21.3988 267.96 24.6521 264.043 24.6521Z" fill="#1E53CF"/>
</svg>
