<svg width="153" height="153" viewBox="0 0 153 153" fill="none" xmlns="http://www.w3.org/2000/svg">
<g filter="url(#filter0_d_30_61)">
<rect x="48.5791" y="32.7864" width="56.2136" height="56.2136" rx="14" fill="#DE5832"/>
</g>
<path d="M76.655 52L76.342 52.095L63.842 56.283L61 57.22L62.655 57.75V66.5C62.058 66.847 61.655 67.48 61.655 68.22C61.655 68.7504 61.8657 69.2591 62.2408 69.6342C62.6159 70.0093 63.1246 70.22 63.655 70.22C64.1854 70.22 64.6941 70.0093 65.0692 69.6342C65.4443 69.2591 65.655 68.7504 65.655 68.22C65.655 67.48 65.252 66.847 64.655 66.5V58.44L66.655 59.095V64.22C66.655 65.04 67.155 65.72 67.749 66.19C68.343 66.657 69.081 66.987 69.967 67.283C71.741 67.873 74.079 68.22 76.655 68.22C79.231 68.22 81.569 67.874 83.343 67.282C84.229 66.987 84.967 66.657 85.561 66.189C86.155 65.72 86.655 65.04 86.655 64.22V59.095L89.468 58.157L92.31 57.22L89.467 56.282L76.967 52.095L76.655 52ZM76.655 54.095L86.03 57.22L76.655 60.345L67.28 57.22L76.655 54.095ZM68.655 59.783L76.343 62.345L76.655 62.439L76.968 62.344L84.655 59.782V64.22C84.655 64.23 84.659 64.346 84.342 64.595C84.026 64.845 83.459 65.16 82.717 65.408C81.235 65.901 79.05 66.22 76.655 66.22C74.26 66.22 72.075 65.902 70.592 65.407C69.852 65.16 69.284 64.844 68.968 64.595C68.65 64.345 68.655 64.23 68.655 64.22V59.783Z" fill="white"/>
<defs>
<filter id="filter0_d_30_61" x="0.579102" y="0.786377" width="152.214" height="152.214" filterUnits="userSpaceOnUse" color-interpolation-filters="sRGB">
<feFlood flood-opacity="0" result="BackgroundImageFix"/>
<feColorMatrix in="SourceAlpha" type="matrix" values="0 0 0 0 0 0 0 0 0 0 0 0 0 0 0 0 0 0 127 0" result="hardAlpha"/>
<feOffset dy="16"/>
<feGaussianBlur stdDeviation="24"/>
<feComposite in2="hardAlpha" operator="out"/>
<feColorMatrix type="matrix" values="0 0 0 0 0.117647 0 0 0 0 0.32549 0 0 0 0 0.811765 0 0 0 0.07 0"/>
<feBlend mode="normal" in2="BackgroundImageFix" result="effect1_dropShadow_30_61"/>
<feBlend mode="normal" in="SourceGraphic" in2="effect1_dropShadow_30_61" result="shape"/>
</filter>
</defs>
</svg>
