<svg width="153" height="153" viewBox="0 0 153 153" fill="none" xmlns="http://www.w3.org/2000/svg">
<g filter="url(#filter0_d_30_72)">
<rect x="48.5791" y="32.7864" width="56.2136" height="56.2136" rx="14" fill="#CE5B8D"/>
</g>
<path d="M72.8 64.75C72.7104 64.75 72.6208 64.7637 72.5353 64.7926C72.0493 64.957 71.5382 65.0625 71 65.0625C70.4619 65.0625 69.9508 64.957 69.4644 64.7926C69.3789 64.7637 69.2897 64.75 69.2001 64.75C66.8728 64.75 64.9877 66.7219 65.0001 69.1492C65.0053 70.175 65.8149 71 66.8001 71H75.2C76.1852 71 76.9948 70.175 77 69.1492C77.0124 66.7219 75.1273 64.75 72.8 64.75ZM71 63.5C72.9883 63.5 74.6 61.8211 74.6 59.75C74.6 57.6789 72.9883 56 71 56C69.0118 56 67.4001 57.6789 67.4001 59.75C67.4001 61.8211 69.0118 63.5 71 63.5ZM87.2 51H72.8C71.8074 51 71 51.8691 71 52.9371V54.75C71.8783 54.75 72.6913 55.0148 73.4 55.4453V53.5H86.6V64.75H84.2V62.25H79.4V64.75H76.541C77.2573 65.402 77.783 66.2629 78.0294 67.25H87.2C88.1926 67.25 89 66.3809 89 65.3129V52.9371C89 51.8691 88.1926 51 87.2 51Z" fill="white"/>
<defs>
<filter id="filter0_d_30_72" x="0.579102" y="0.786377" width="152.214" height="152.214" filterUnits="userSpaceOnUse" color-interpolation-filters="sRGB">
<feFlood flood-opacity="0" result="BackgroundImageFix"/>
<feColorMatrix in="SourceAlpha" type="matrix" values="0 0 0 0 0 0 0 0 0 0 0 0 0 0 0 0 0 0 127 0" result="hardAlpha"/>
<feOffset dy="16"/>
<feGaussianBlur stdDeviation="24"/>
<feComposite in2="hardAlpha" operator="out"/>
<feColorMatrix type="matrix" values="0 0 0 0 0.117647 0 0 0 0 0.32549 0 0 0 0 0.811765 0 0 0 0.07 0"/>
<feBlend mode="normal" in2="BackgroundImageFix" result="effect1_dropShadow_30_72"/>
<feBlend mode="normal" in="SourceGraphic" in2="effect1_dropShadow_30_72" result="shape"/>
</filter>
</defs>
</svg>
