<svg width="162" height="162" viewBox="0 0 162 162" fill="none" xmlns="http://www.w3.org/2000/svg">
<g filter="url(#filter0_d_14_19)">
<rect x="48.5283" y="32.5099" width="65.1204" height="65.1204" rx="14" fill="#1E53CF"/>
</g>
<path d="M101.045 63.8908C101.045 73.6811 92.1094 81.6176 81.0886 81.6176C79.112 81.6203 77.1437 81.3597 75.2339 80.8427C73.7771 81.5922 70.4319 83.0306 64.8043 83.9676C64.3054 84.0487 63.9262 83.5219 64.1233 83.0509C65.0063 80.9338 65.8046 78.1127 66.0441 75.5398C62.9883 72.425 61.1323 68.3479 61.1323 63.8908C61.1323 54.1006 70.0677 46.1641 81.0886 46.1641C92.1094 46.1641 101.045 54.1006 101.045 63.8908ZM72.3577 56.2937C72.0269 56.2937 71.7097 56.4271 71.4758 56.6645C71.2419 56.902 71.1104 57.2241 71.1104 57.5599C71.1104 57.8957 71.2419 58.2178 71.4758 58.4552C71.7097 58.6927 72.0269 58.8261 72.3577 58.8261H89.8194C90.1502 58.8261 90.4675 58.6927 90.7014 58.4552C90.9353 58.2178 91.0667 57.8957 91.0667 57.5599C91.0667 57.2241 90.9353 56.902 90.7014 56.6645C90.4675 56.4271 90.1502 56.2937 89.8194 56.2937H72.3577ZM72.3577 62.6247C72.0269 62.6247 71.7097 62.7581 71.4758 62.9955C71.2419 63.233 71.1104 63.555 71.1104 63.8908C71.1104 64.2267 71.2419 64.5487 71.4758 64.7862C71.7097 65.0236 72.0269 65.157 72.3577 65.157H89.8194C90.1502 65.157 90.4675 65.0236 90.7014 64.7862C90.9353 64.5487 91.0667 64.2267 91.0667 63.8908C91.0667 63.555 90.9353 63.233 90.7014 62.9955C90.4675 62.7581 90.1502 62.6247 89.8194 62.6247H72.3577ZM72.3577 68.9556C72.0269 68.9556 71.7097 69.089 71.4758 69.3265C71.2419 69.5639 71.1104 69.886 71.1104 70.2218C71.1104 70.5576 71.2419 70.8797 71.4758 71.1172C71.7097 71.3546 72.0269 71.488 72.3577 71.488H82.3358C82.6666 71.488 82.9839 71.3546 83.2178 71.1172C83.4517 70.8797 83.5831 70.5576 83.5831 70.2218C83.5831 69.886 83.4517 69.5639 83.2178 69.3265C82.9839 69.089 82.6666 68.9556 82.3358 68.9556H72.3577Z" fill="white"/>
<defs>
<filter id="filter0_d_14_19" x="0.52832" y="0.50988" width="161.12" height="161.12" filterUnits="userSpaceOnUse" color-interpolation-filters="sRGB">
<feFlood flood-opacity="0" result="BackgroundImageFix"/>
<feColorMatrix in="SourceAlpha" type="matrix" values="0 0 0 0 0 0 0 0 0 0 0 0 0 0 0 0 0 0 127 0" result="hardAlpha"/>
<feOffset dy="16"/>
<feGaussianBlur stdDeviation="24"/>
<feComposite in2="hardAlpha" operator="out"/>
<feColorMatrix type="matrix" values="0 0 0 0 0.117647 0 0 0 0 0.32549 0 0 0 0 0.811765 0 0 0 0.07 0"/>
<feBlend mode="normal" in2="BackgroundImageFix" result="effect1_dropShadow_14_19"/>
<feBlend mode="normal" in="SourceGraphic" in2="effect1_dropShadow_14_19" result="shape"/>
</filter>
</defs>
</svg>
