<svg width="162" height="163" viewBox="0 0 162 163" fill="none" xmlns="http://www.w3.org/2000/svg">
<g filter="url(#filter0_d_14_51)">
<rect x="48.1392" y="32.9586" width="65.1204" height="65.1204" rx="14" fill="#1E53CF"/>
</g>
<path d="M63.6913 82.3239H98.7578C100.215 82.3239 101.123 80.7743 100.404 79.5234L82.8615 49.6511C82.6967 49.3663 82.4585 49.1295 82.171 48.9649C81.8835 48.8002 81.557 48.7134 81.2245 48.7134C80.8921 48.7134 80.5656 48.8002 80.2781 48.9649C79.9906 49.1295 79.7524 49.3663 79.5876 49.6511L62.0449 79.5234C61.3258 80.7743 62.2341 82.3239 63.6913 82.3239ZM83.1264 76.7229H79.3416V72.9889H83.1264V76.7229ZM81.234 69.2548C80.1932 69.2548 79.3416 68.4147 79.3416 67.3878V63.6538C79.3416 62.6269 80.1932 61.7868 81.234 61.7868C82.2748 61.7868 83.1264 62.6269 83.1264 63.6538V67.3878C83.1264 68.4147 82.2748 69.2548 81.234 69.2548Z" fill="white"/>
<defs>
<filter id="filter0_d_14_51" x="0.13916" y="0.958557" width="161.12" height="161.12" filterUnits="userSpaceOnUse" color-interpolation-filters="sRGB">
<feFlood flood-opacity="0" result="BackgroundImageFix"/>
<feColorMatrix in="SourceAlpha" type="matrix" values="0 0 0 0 0 0 0 0 0 0 0 0 0 0 0 0 0 0 127 0" result="hardAlpha"/>
<feOffset dy="16"/>
<feGaussianBlur stdDeviation="24"/>
<feComposite in2="hardAlpha" operator="out"/>
<feColorMatrix type="matrix" values="0 0 0 0 0.117647 0 0 0 0 0.32549 0 0 0 0 0.811765 0 0 0 0.07 0"/>
<feBlend mode="normal" in2="BackgroundImageFix" result="effect1_dropShadow_14_51"/>
<feBlend mode="normal" in="SourceGraphic" in2="effect1_dropShadow_14_51" result="shape"/>
</filter>
</defs>
</svg>
