<svg width="71" height="57" viewBox="0 0 71 57" fill="none" xmlns="http://www.w3.org/2000/svg">
<path d="M70.8333 16.32V45.1562C70.8335 48.0963 69.7087 50.925 67.6895 53.0621C65.6703 55.1991 62.9099 56.4825 59.9746 56.649L59.3229 56.6667H11.5104C8.57035 56.6669 5.74165 55.542 3.6046 53.5228C1.46755 51.5037 0.184162 48.7433 0.0177087 45.8079L0 45.1562V16.32L34.1842 34.2267C34.5645 34.4259 34.9874 34.5299 35.4167 34.5299C35.846 34.5299 36.2689 34.4259 36.6492 34.2267L70.8333 16.32ZM11.5104 8.36013e-08H59.3229C62.176 -0.000343594 64.9276 1.05894 67.0439 2.9724C69.1602 4.88587 70.4905 7.51712 70.7767 10.3558L35.4167 28.8787L0.0566668 10.3558C0.331229 7.62986 1.56914 5.09121 3.54786 3.19622C5.52659 1.30124 8.11637 0.174204 10.8517 0.0177088L11.5104 8.36013e-08H59.3229H11.5104Z" fill="#1E53CF"/>
</svg>
