<svg width="64" height="64" viewBox="0 0 64 64" fill="none" xmlns="http://www.w3.org/2000/svg">
<path d="M0.000353651 23.8654C-0.0084317 24.4039 0.14665 24.9323 0.445037 25.3805C0.743425 25.8288 1.17102 26.1759 1.67114 26.3756L27.1738 36.5782L37.3764 62.0835C37.5735 62.5769 37.914 62.9997 38.3539 63.2976C38.7938 63.5954 39.3129 63.7545 39.8441 63.7543H39.8866C40.4246 63.7458 40.9473 63.5742 41.3856 63.2621C41.8239 62.95 42.157 62.5121 42.341 62.0065L63.591 3.56901C63.7649 3.09361 63.7994 2.5784 63.6904 2.08405C63.5813 1.58971 63.3333 1.13683 62.9755 0.778731C62.6176 0.420636 62.165 0.172243 61.6707 0.0628091C61.1764 -0.046625 60.6612 -0.012544 60.1857 0.161038L1.74817 21.411C1.24233 21.5955 0.804392 21.9291 0.492299 22.3678C0.180206 22.8066 0.00866024 23.3297 0.000353651 23.8681V23.8654Z" fill="#1E53CF"/>
</svg>
