<svg width="64" height="64" viewBox="0 0 64 64" fill="none" xmlns="http://www.w3.org/2000/svg">
<path d="M61.9341 49.4229L47.5373 36.3329C46.8567 35.7143 45.9624 35.3844 45.0432 35.4129C44.124 35.4413 43.2518 35.8258 42.6108 36.4852L34.1356 45.2012C32.0956 44.8116 27.9943 43.5331 23.7727 39.322C19.551 35.0968 18.2725 30.985 17.8935 28.9591L26.6025 20.4804C27.2627 19.8398 27.6477 18.9674 27.6762 18.048C27.7046 17.1285 27.3741 16.2341 26.7547 15.5539L13.6683 1.16058C13.0487 0.478298 12.1874 0.0644454 11.2676 0.00691259C10.3477 -0.0506202 9.44166 0.252699 8.74183 0.852452L1.05642 7.4435C0.444101 8.05803 0.0786304 8.87592 0.0293319 9.74203C-0.0237931 10.6275 -1.03671 31.6012 15.2266 47.8716C29.4145 62.056 47.1866 63.0937 52.0812 63.0937C52.7966 63.0937 53.2358 63.0725 53.3527 63.0654C54.2187 63.0169 55.0361 62.6498 55.6477 62.0347L62.2352 54.3458C62.8373 53.6482 63.1428 52.7429 63.0866 51.8231C63.0304 50.9033 62.6168 50.0419 61.9341 49.4229Z" fill="#1E53CF"/>
</svg>
